<svg xmlns="http://www.w3.org/2000/svg" viewBox="0 0 1200 630">
  <defs>
    <linearGradient id="bg" x1="0" x2="1" y1="0" y2="1">
      <stop offset="0" stop-color="#f7f4ee"/>
      <stop offset="0.52" stop-color="#edf4f1"/>
      <stop offset="1" stop-color="#eef2f7"/>
    </linearGradient>
  </defs>
  <rect width="1200" height="630" fill="url(#bg)"/>
  <rect x="106" y="90" width="988" height="450" rx="32" fill="#ffffff" fill-opacity="0.9" stroke="#d8dde4" stroke-width="3"/>
  <g transform="translate(154 144)">
    <rect width="160" height="160" rx="26" fill="#ffffff" stroke="#cfd6df" stroke-width="10"/>
    <path d="M34 34 L68 68 M68 34 L34 68" stroke="#2364aa" stroke-width="12" stroke-linecap="round"/>
    <circle cx="112" cy="51" r="22" fill="none" stroke="#d95d39" stroke-width="12"/>
    <circle cx="51" cy="112" r="22" fill="none" stroke="#d95d39" stroke-width="12"/>
    <path d="M92 92 L126 126 M126 92 L92 126" stroke="#2364aa" stroke-width="12" stroke-linecap="round"/>
  </g>
  <text x="360" y="230" fill="#202124" font-family="Inter, Segoe UI, Arial, sans-serif" font-size="82" font-weight="800">Tic Tac Xoxo</text>
  <text x="362" y="306" fill="#69707a" font-family="Inter, Segoe UI, Arial, sans-serif" font-size="34" font-weight="700">3x3, 4x4, or 5x5. Play local or vs computer.</text>
  <g transform="translate(362 365)" fill="#202124" font-family="Inter, Segoe UI, Arial, sans-serif" font-size="30" font-weight="800">
    <rect width="118" height="54" rx="12" fill="#edf4f1" stroke="#1b998b" stroke-width="2"/>
    <text x="32" y="37">3x3</text>
    <rect x="138" width="118" height="54" rx="12" fill="#ffffff" stroke="#cfd6df" stroke-width="2"/>
    <text x="170" y="37">4x4</text>
    <rect x="276" width="118" height="54" rx="12" fill="#ffffff" stroke="#cfd6df" stroke-width="2"/>
    <text x="308" y="37">5x5</text>
  </g>
</svg>
